<svg width="202" height="201" viewBox="0 0 202 201" fill="none" xmlns="http://www.w3.org/2000/svg">
<circle cx="101" cy="101" r="100" fill="url(#paint0_linear_675_2612)"/>
<path d="M53.6731 73.5C59.2731 73.5 62.3398 76.8333 63.1731 78.5C42.1719 83.5 49.8234 127.8 59.1719 129.5C64.6719 130.5 70 129 76.6719 116.5C83.4138 103.869 95.3403 81.6667 99.6736 67C103.34 67.6667 109.22 71.2032 109.672 78C110.17 85.5 116.672 127.5 117.672 127C118.672 126.5 132.672 89 143.172 74.5L136.172 71.5L155.672 61L160.174 81.5L152.172 78C133.672 109 123.67 139.5 118.672 141.5C114.005 143.367 111.174 135.5 108.672 127C106.17 118.5 101.674 87 101.674 87C101.674 87 86.8183 118.75 77.6719 131.5C70.4982 141.5 54.1851 143 47.6735 131.5C32.6693 105.001 46.6731 73.5 53.6731 73.5Z" fill="white"/>
<defs>
<linearGradient id="paint0_linear_675_2612" x1="1.05395" y1="100.785" x2="201" y2="100.785" gradientUnits="userSpaceOnUse">
<stop stop-color="#005E93"/>
<stop offset="1" stop-color="#34B3E4"/>
</linearGradient>
</defs>
</svg>
