<svg width="244" height="250" viewBox="0 0 244 250" fill="none" xmlns="http://www.w3.org/2000/svg">
<g filter="url(#filter0_d_213_2774)">
<path fill-rule="evenodd" clip-rule="evenodd" d="M206.855 13.46C208.335 11.9814 209.167 9.97595 209.167 7.88484C209.167 5.79373 208.335 3.78826 206.855 2.30963C205.375 0.830988 203.368 0.000308791 201.274 0.000308791C199.181 0.000308791 197.173 0.830988 195.693 2.30963C194.714 3.28796 194.019 4.49693 193.66 5.80874C186.622 7.78897 181.397 10.7142 177.778 14.5737C173.271 19.3817 171.598 25.2711 171.598 31.5267V31.5933V31.6601V31.7273V31.7947V31.8624V31.9304V31.9987V32.0672V32.136V32.205V32.2743V32.3439V32.4138V32.4839V32.5542V32.6249V32.6958V32.7669V32.8383V32.9099V32.9818V33.0539V33.1263V33.1989V33.2718V33.3449V33.4183V33.4919V33.5657V33.6397V33.714V33.7885V33.8633V33.9383V34.0135V34.0889V34.1646V34.2404V34.3165V34.3928V34.4694V34.5462V34.6231V34.7003V34.7777V34.8553V34.9331V35.0111V35.0893V35.1677V35.2463V35.3252V35.4041V35.4834V35.5628V35.6424V35.7222V35.8022V35.8823V35.9627V36.0432V36.1239V36.2048V36.2859V36.3672V36.4486V36.5302V36.6121V36.694V36.7761V36.8584V36.9409V37.0236V37.1063V37.1893V37.2724V37.3557V37.4391V37.5227V37.6065V37.6904V37.7744V37.8586V37.943V38.0275V38.1121V38.1969V38.2819V38.3669V38.4521V38.5375V38.6229V38.7086V38.7943V38.8802V38.9662V39.0523V39.1386V39.2249V39.3115V39.3981V39.4848V39.5717V39.6586V39.7457V39.8329V39.9203V40.0077V40.0952V40.1829V40.2706V40.3584V40.4464V40.5345V40.6226V40.7108V40.7991V40.8876V40.9761V41.0647V41.1534V41.2422V41.331V41.42V41.509V41.5982V41.6874V41.7767V41.866V41.9554V42.0449V42.1345V42.2241V42.3138V42.4036V42.4935V42.5834V42.6733V42.7633V42.8535V42.9436V43.0337V43.124V43.2143V43.3046V43.395V43.4855V43.5759V43.6665V43.7571V43.8477V43.9383V44.029V44.1198V44.2105V44.3013V44.3921V44.483V44.5739V44.6648V44.7556V44.8466V44.9376V45.0286V45.1196V45.2106V45.3017V45.3927V45.4838V45.5749V45.666V45.757V45.8481V45.9392V46.0304V46.1214V46.2125V46.3037V46.3947V46.4858V46.5769V46.668V46.759V46.8501V46.9411V47.0321V47.1232V47.2141V47.3051V47.396V47.4869V47.5778V47.6686V47.7595V47.8503V47.9411V48.0318V48.1225V48.2132V48.3038V48.3944V48.485V48.5754V48.6659V48.7563V48.8466V48.937V49.0272V49.1174V49.2076V49.2977V49.3878V49.4777V49.5677V49.6576V49.7473V49.8371V49.9267V50.0163V50.1058V50.1953V50.2847V50.374V50.4632V50.5524V50.6414V50.7304V50.8193V50.9082V50.9968V51.0855V51.1741V51.2625V51.3509V51.4392V51.5274V51.6154V51.7034V51.7913V51.8791V51.9668V52.0543V52.1418V52.2292V52.3164V52.4035V52.4906V52.5775V52.6642V52.7509V52.8375V52.9239V53.0102V53.0963V53.1824V53.2683V53.3541V53.4398V53.5253V53.6107V53.696V53.7811V53.8661V53.9509V54.0356V54.1201V54.2045V54.2888V54.3729V54.4569V54.5407V54.6243V54.7078V54.7911V54.8743V54.9573V55.0402V55.1229V55.2054V55.2878V55.37V55.4521V55.5339V55.6156V55.6971V55.7784V55.8596V55.9405V56.0213V56.1019V56.1824V56.2626V56.3426V56.4225V56.5022V56.5816V56.6609V56.74V56.8189V56.8976V56.9761V57.0544V57.1325V57.2104V57.288V57.3655V57.4427V57.5198V57.5966V57.6732V57.7496V57.8258V57.9018V57.9775V58.053V58.1283V58.2034V58.2782V58.3528V58.4272V58.5014V58.5753V58.649V58.7224V58.7955V58.8685V58.9413V59.0137V59.0859V59.1579V59.2296V59.3011V59.3724V59.4433V59.514V59.5845V59.6547V59.7247V59.7944V59.8637V59.9329V60.0018V60.0704V60.1388V60.2069V60.2747V60.3422V60.4095V60.4765V60.5431V60.6096V60.6757V60.7416V60.8071V60.8724V60.9374V61.0021V61.0665V61.1306V61.1945V61.258V61.3212V61.3841V61.4467V61.509V61.5711V61.6328V61.6942V61.7553V61.8161V61.8765V61.9367V61.9965V62.056V62.1152V62.1741V62.2326V62.2909V62.3488V62.4063V62.4636V62.5205V62.5772V62.6334V62.6893V62.7449V62.8001V62.855V62.9096V62.9638V63.0177V63.0712V63.1245V63.1775V63.2299V63.2816V63.3333V63.3497H125.053V46.3614V36.8985C125.098 28.8187 122.111 21.0152 116.68 15.0275C111.246 9.03745 103.762 5.3002 95.7048 4.55374C87.6481 3.80726 79.6033 6.10583 73.1598 10.9956C67.2833 15.4553 63.1277 21.7749 61.3491 28.8868C57.8453 29.7844 54.5121 31.2643 51.4907 33.2691C47.8774 35.6667 44.784 38.7661 42.3945 42.3827C40.0052 45.9993 38.3686 50.0592 37.5823 54.3208C36.9863 57.5513 36.8881 60.8475 37.2858 64.0959C32.6138 65.4022 28.2821 67.7461 24.6221 70.9681C20.174 74.8838 16.8892 79.9457 15.1269 85.6005C13.3646 91.2559 13.1926 97.286 14.6297 103.032C15.7245 107.409 17.721 111.493 20.4748 115.031C15.1267 118.249 10.631 122.741 7.40621 128.132C3.46302 134.722 1.60347 142.349 2.07093 150.013C2.53839 157.676 5.31109 165.021 10.0261 171.085C14.1517 176.391 19.5961 180.499 25.7949 183.017C25.0275 187.507 25.2176 192.12 26.3661 196.55C27.7575 201.918 30.5086 206.838 34.3546 210.835C38.2005 214.834 43.0119 217.775 48.3256 219.377C52.6372 220.677 57.1617 221.059 61.6092 220.514C63.3618 226.686 66.9234 232.222 71.8686 236.389C77.6144 241.231 84.8699 243.921 92.3868 243.998C99.6152 244.071 108.198 242.182 114.232 237.304C116.947 235.109 119.824 232.617 121.894 228.312C123.668 224.623 124.746 219.834 124.997 213.091H156.251C156.635 213.905 157.16 214.655 157.809 215.304C159.289 216.783 161.297 217.613 163.39 217.613C165.483 217.613 167.491 216.783 168.971 215.304C170.451 213.826 171.283 211.82 171.283 209.729C171.283 207.638 170.451 205.632 168.971 204.154C167.491 202.675 165.483 201.844 163.39 201.844C161.297 201.844 159.289 202.675 157.809 204.154C157.051 204.912 156.462 205.808 156.069 206.783H125.053V174.114H207.273C212.133 174.114 217.815 174.196 222.4 177.486C226.44 180.386 230.323 186.358 230.882 199.379C230.013 199.768 229.213 200.314 228.527 201C227.047 202.478 226.215 204.484 226.215 206.575C226.215 208.666 227.047 210.672 228.527 212.15C230.007 213.629 232.015 214.46 234.108 214.46C236.201 214.46 238.209 213.629 239.689 212.15C241.169 210.672 242 208.666 242 206.575C242 204.484 241.169 202.478 239.689 201C238.967 200.279 238.12 199.712 237.198 199.32C236.619 185.03 232.294 176.821 226.084 172.364C219.729 167.802 212.144 167.805 207.508 167.806H207.273H125.053V131.982V119.091H182.763C183.147 119.912 183.675 120.668 184.328 121.321C185.808 122.799 187.816 123.63 189.909 123.63C192.002 123.63 194.01 122.799 195.49 121.321C196.97 119.842 197.802 117.836 197.802 115.745C197.802 113.654 196.97 111.648 195.49 110.17C194.01 108.691 192.002 107.861 189.909 107.861C187.816 107.861 185.808 108.691 184.328 110.17C183.574 110.924 182.988 111.814 182.594 112.784H125.053V69.6573H174.755H204.125C204.517 70.5682 205.081 71.4064 205.796 72.1211C207.276 73.5996 209.284 74.4303 211.377 74.4303C213.47 74.4303 215.478 73.5996 216.958 72.1211C218.438 70.6426 219.27 68.6368 219.27 66.5458C219.27 64.4548 218.438 62.4492 216.958 60.9705C215.478 59.4919 213.47 58.6613 211.377 58.6613C209.284 58.6613 207.276 59.4919 205.796 60.9705C205.103 61.6632 204.552 62.4713 204.162 63.3497H177.912V63.3333V63.2816V63.2299V63.1775V63.1245V63.0712V63.0177V62.9638V62.9096V62.855V62.8001V62.7449V62.6893V62.6334V62.5772V62.5205V62.4636V62.4063V62.3488V62.2909V62.2326V62.1741V62.1152V62.056V61.9965V61.9367V61.8765V61.8161V61.7553V61.6942V61.6328V61.5711V61.509V61.4467V61.3841V61.3212V61.258V61.1945V61.1306V61.0665V61.0021V60.9374V60.8724V60.8071V60.7416V60.6757V60.6096V60.5431V60.4765V60.4095V60.3422V60.2747V60.2069V60.1388V60.0704V60.0018V59.9329V59.8637V59.7944V59.7247V59.6547V59.5845V59.514V59.4433V59.3724V59.3011V59.2296V59.1579V59.0859V59.0137V58.9413V58.8685V58.7955V58.7224V58.649V58.5753V58.5014V58.4272V58.3528V58.2782V58.2034V58.1283V58.053V57.9775V57.9018V57.8258V57.7496V57.6732V57.5966V57.5198V57.4427V57.3655V57.288V57.2104V57.1325V57.0544V56.9761V56.8976V56.8189V56.74V56.6609V56.5816V56.5022V56.4225V56.3426V56.2626V56.1824V56.1019V56.0213V55.9405V55.8596V55.7784V55.6971V55.6156V55.5339V55.4521V55.37V55.2878V55.2054V55.1229V55.0402V54.9573V54.8743V54.7911V54.7078V54.6243V54.5407V54.4569V54.3729V54.2888V54.2045V54.1201V54.0356V53.9509V53.8661V53.7811V53.696V53.6107V53.5253V53.4398V53.3541V53.2683V53.1824V53.0963V53.0102V52.9239V52.8375V52.7509V52.6642V52.5775V52.4906V52.4035V52.3164V52.2292V52.1418V52.0543V51.9668V51.8791V51.7913V51.7034V51.6154V51.5274V51.4392V51.3509V51.2625V51.1741V51.0855V50.9968V50.9082V50.8193V50.7304V50.6414V50.5524V50.4632V50.374V50.2847V50.1953V50.1058V50.0163V49.9267V49.8371V49.7473V49.6576V49.5677V49.4777V49.3878V49.2977V49.2076V49.1174V49.0272V48.937V48.8466V48.7563V48.6659V48.5754V48.485V48.3944V48.3038V48.2132V48.1225V48.0318V47.9411V47.8503V47.7595V47.6686V47.5778V47.4869V47.396V47.3051V47.2141V47.1232V47.0321V46.9411V46.8501V46.759V46.668V46.5769V46.4858V46.3947V46.3037V46.2125V46.1214V46.0304V45.9392V45.8481V45.757V45.666V45.5749V45.4838V45.3927V45.3017V45.2106V45.1196V45.0286V44.9376V44.8466V44.7556V44.6648V44.5739V44.483V44.3921V44.3013V44.2105V44.1198V44.029V43.9383V43.8477V43.7571V43.6665V43.5759V43.4855V43.395V43.3046V43.2143V43.124V43.0337V42.9436V42.8535V42.7633V42.6733V42.5834V42.4935V42.4036V42.3138V42.2241V42.1345V42.0449V41.9554V41.866V41.7767V41.6874V41.5982V41.509V41.42V41.331V41.2422V41.1534V41.0647V40.9761V40.8876V40.7991V40.7108V40.6226V40.5345V40.4464V40.3584V40.2706V40.1829V40.0952V40.0077V39.9203V39.8329V39.7457V39.6586V39.5717V39.4848V39.3981V39.3115V39.2249V39.1386V39.0523V38.9662V38.8802V38.7943V38.7086V38.6229V38.5375V38.4521V38.3669V38.2819V38.1969V38.1121V38.0275V37.943V37.8586V37.7744V37.6904V37.6065V37.5227V37.4391V37.3557V37.2724V37.1893V37.1063V37.0236V36.9409V36.8584V36.7761V36.694V36.6121V36.5302V36.4486V36.3672V36.2859V36.2048V36.1239V36.0432V35.9627V35.8823V35.8022V35.7222V35.6424V35.5628V35.4834V35.4041V35.3252V35.2463V35.1677V35.0893V35.0111V34.9331V34.8553V34.7777V34.7003V34.6231V34.5462V34.4694V34.3928V34.3165V34.2404V34.1646V34.0889V34.0135V33.9383V33.8633V33.7885V33.714V33.6397V33.5657V33.4919V33.4183V33.3449V33.2718V33.1989V33.1263V33.0539V32.9818V32.9099V32.8383V32.7669V32.6958V32.6249V32.5542V32.4839V32.4138V32.3439V32.2743V32.205V32.136V32.0672V31.9987V31.9304V31.8624V31.7947V31.7273V31.6601V31.5933V31.5267C177.912 26.4403 179.239 22.2433 182.387 18.8855C184.895 16.2104 188.766 13.8466 194.605 12.102C194.915 12.5896 195.279 13.0456 195.693 13.46C197.173 14.9387 199.181 15.7694 201.274 15.7694C203.368 15.7694 205.375 14.9387 206.855 13.46ZM97.0428 39.885C88.4001 28.9491 76.4601 27.2923 68.2689 27.8236C69.9674 23.1638 72.9773 19.0552 76.9792 16.0183C82.1643 12.0834 88.6381 10.2337 95.1221 10.8344C101.606 11.4351 107.628 14.4426 112.001 19.2629C116.373 24.0833 118.777 30.3663 118.739 36.871V36.8898V46.1083C117.919 51.0832 115.084 62.4948 101.187 66.9022C99.5249 67.4295 98.6049 69.2026 99.1328 70.8627C99.6606 72.5229 101.436 73.4413 103.097 72.914C110.573 70.5436 115.489 66.5004 118.739 62.2095V66.5035V115.938V119.107C117.547 117.662 116.174 116.297 114.593 115.089C108.519 110.449 99.9037 108.524 88.2208 112.324C86.5627 112.863 85.656 114.643 86.1958 116.3C86.7357 117.955 88.5175 118.861 90.1756 118.322C100.213 115.057 106.591 116.917 110.757 120.099C114.977 123.323 117.435 128.29 118.739 132.453V170.96V209.937C118.739 217.894 117.67 222.528 116.202 225.58C114.766 228.567 112.818 230.333 110.26 232.4C105.747 236.048 98.7893 237.755 92.4512 237.691C86.4023 237.629 80.5637 235.464 75.9392 231.568C71.9475 228.203 69.0758 223.731 67.6703 218.744C70.8192 217.258 74.857 214.904 78.0601 211.392C82.3531 206.685 85.0637 199.954 82.439 191.068C81.9458 189.398 80.1899 188.443 78.5179 188.936C76.8453 189.429 75.89 191.183 76.3831 192.854C78.3045 199.358 76.3964 203.851 73.3928 207.143C70.3159 210.517 66.0204 212.665 63.068 213.881C58.7863 214.788 54.343 214.603 50.1499 213.338C45.8739 212.049 42.0021 209.682 38.9071 206.465C35.8122 203.248 33.5983 199.289 32.4786 194.969C31.6286 191.69 31.4309 188.287 31.8851 184.951C34.2909 185.521 37.3483 186.042 40.5885 186.137C45.6329 186.283 51.7033 185.409 56.2471 181.392C57.5528 180.238 57.6745 178.244 56.519 176.94C55.3634 175.636 53.3682 175.514 52.0625 176.668C49.282 179.127 45.1641 179.959 40.7723 179.831C36.4491 179.705 32.4228 178.661 30.4674 178.005C30.4542 178 30.441 177.997 30.4277 177.992C24.3204 176.032 18.9476 172.276 15.0126 167.216C11.0775 162.155 8.76345 156.025 8.37331 149.629C7.98322 143.233 9.53516 136.868 12.8261 131.367C16.117 125.867 20.9935 121.487 26.8174 118.801C26.912 118.757 27.0045 118.709 27.0943 118.656C28.8933 117.6 33.2984 116.367 38.7896 116.313C44.1882 116.259 50.1148 117.355 55.012 120.4C56.4922 121.321 58.4392 120.868 59.3606 119.39C60.282 117.911 59.829 115.966 58.3488 115.046C52.1333 111.18 44.9177 109.944 38.7269 110.005C33.9467 110.053 29.4533 110.88 26.2396 112.114C23.6184 109.057 21.7367 105.427 20.7555 101.503C19.599 96.8792 19.7374 92.0267 21.1556 87.4758C22.5737 82.9248 25.2171 78.8513 28.7966 75.7C32.3761 72.5494 36.754 70.442 41.4515 69.6088C42.2992 69.4587 43.0487 68.9685 43.5263 68.2533C44.0039 67.538 44.1684 66.6587 43.9815 65.8192C43.2236 62.4149 43.1591 58.8934 43.7918 55.4641C44.4246 52.0347 45.7415 48.7676 47.6643 45.8572C49.5872 42.9469 52.0765 40.4527 54.9842 38.5233C57.8919 36.5939 61.1585 35.2687 64.5897 34.6265C71.3079 33.3691 83.7144 33.1991 92.0869 43.7935C93.1672 45.1606 95.1524 45.3939 96.5213 44.3146C97.8895 43.2354 98.1231 41.2521 97.0428 39.885ZM75.0944 135.178C76.1842 134.629 77.5133 135.066 78.0633 136.154C80.3673 140.715 80.3566 145.528 79.5035 149.567C78.9346 152.259 77.9768 154.687 76.9905 156.598C82.9176 159.018 88.2441 163.244 91.9612 168.215C96.198 173.881 98.5588 180.83 96.8578 187.387C96.5516 188.567 95.3456 189.276 94.1642 188.971C92.9828 188.665 92.2731 187.46 92.5794 186.28C93.8289 181.463 92.1759 175.88 88.4203 170.858C84.6842 165.861 79.0799 161.733 73.0771 159.882C67.7379 158.236 62.2004 158.417 57.3157 161.215C56.257 161.822 54.9065 161.456 54.2993 160.398C53.6921 159.34 54.0582 157.992 55.117 157.385C60.7369 154.166 66.9309 153.782 72.7235 155.205C73.6403 153.566 74.6284 151.26 75.179 148.655C75.8957 145.262 75.8351 141.543 74.1176 138.144C73.5677 137.056 74.0052 135.728 75.0944 135.178ZM84.4146 62.5709C85.5297 62.0758 86.0317 60.7711 85.536 59.6569C85.0404 58.5427 83.7346 58.041 82.6195 58.5362C76.2922 61.3454 72.7942 66.1806 71.0237 71.0009C69.6757 74.6719 69.3114 78.3675 69.4301 81.269C60.405 82.3735 53.5148 87.8605 50.2208 91.9744C49.4583 92.9262 49.6128 94.3158 50.5659 95.0771C51.519 95.839 52.9096 95.6845 53.6721 94.7321C56.6933 90.9595 63.3926 85.7935 71.9121 85.4996C76.404 85.3444 81.5228 86.5334 87.0394 90.1527C88.0598 90.822 89.4299 90.5381 90.0998 89.5188C90.7698 88.5001 90.4856 87.1314 89.4653 86.4615C84.0118 82.8838 78.732 81.3107 73.8461 81.0962C73.7483 78.722 74.0419 75.6023 75.1733 72.5223C76.6123 68.604 79.3766 64.808 84.4146 62.5709Z" fill="url(#paint0_linear_213_2774)"/>
</g>
<defs>
<filter id="filter0_d_213_2774" x="0.000244141" y="0.000305176" width="244" height="250" filterUnits="userSpaceOnUse" color-interpolation-filters="sRGB">
<feFlood flood-opacity="0" result="BackgroundImageFix"/>
<feColorMatrix in="SourceAlpha" type="matrix" values="0 0 0 0 0 0 0 0 0 0 0 0 0 0 0 0 0 0 127 0" result="hardAlpha"/>
<feOffset dy="4"/>
<feGaussianBlur stdDeviation="1"/>
<feComposite in2="hardAlpha" operator="out"/>
<feColorMatrix type="matrix" values="0 0 0 0 0 0 0 0 0 0 0 0 0 0 0 0 0 0 0.25 0"/>
<feBlend mode="normal" in2="BackgroundImageFix" result="effect1_dropShadow_213_2774"/>
<feBlend mode="normal" in="SourceGraphic" in2="effect1_dropShadow_213_2774" result="shape"/>
</filter>
<linearGradient id="paint0_linear_213_2774" x1="2.06474" y1="121.737" x2="242" y2="121.737" gradientUnits="userSpaceOnUse">
<stop stop-color="#34B3E4"/>
<stop offset="1" stop-color="#005E93"/>
</linearGradient>
</defs>
</svg>
