<svg width="389" height="395" viewBox="0 0 389 395" fill="none" xmlns="http://www.w3.org/2000/svg">
<g clip-path="url(#clip0_76_14)">
<g filter="url(#filter0_d_76_14)">
<path fill-rule="evenodd" clip-rule="evenodd" d="M328.442 23.3388C330.786 20.9946 332.103 17.8152 332.103 14.5C332.103 11.1848 330.786 8.00535 328.442 5.66115C326.098 3.31694 322.918 2 319.603 2C316.288 2 313.108 3.31694 310.764 5.66115C309.213 7.21218 308.112 9.12886 307.544 11.2086C296.397 14.348 288.122 18.9856 282.391 25.1044C275.252 32.727 272.603 42.0639 272.603 51.9813V52.0869V52.1929V52.2994V52.4063V52.5136V52.6214V52.7296V52.8382V52.9473V53.0567V53.1666V53.277V53.3877V53.4989V53.6104V53.7224V53.8348V53.9475V54.0607V54.1743V54.2882V54.4026V54.5174V54.6325V54.748V54.8639V54.9802V55.0969V55.2139V55.3313V55.4491V55.5672V55.6858V55.8046V55.9239V56.0435V56.1634V56.2837V56.4043V56.5253V56.6467V56.7684V56.8904V57.0127V57.1354V57.2584V57.3818V57.5055V57.6295V57.7538V57.8784V58.0034V58.1286V58.2542V58.3801V58.5063V58.6328V58.7596V58.8867V59.0141V59.1418V59.2697V59.398V59.5266V59.6554V59.7845V59.9139V60.0436V60.1735V60.3037V60.4342V60.5649V60.696V60.8272V60.9588V61.0905V61.2226V61.3548V61.4874V61.6202V61.7532V61.8864V62.0199V62.1536V62.2876V62.4218V62.5562V62.6909V62.8257V62.9608V63.0961V63.2316V63.3674V63.5033V63.6394V63.7758V63.9123V64.0491V64.186V64.3232V64.4605V64.598V64.7357V64.8736V65.0117V65.1499V65.2884V65.427V65.5657V65.7047V65.8438V65.983V66.1225V66.2621V66.4018V66.5417V66.6817V66.8219V66.9623V67.1028V67.2434V67.3841V67.525V67.6661V67.8072V67.9485V68.0899V68.2315V68.3731V68.5149V68.6568V68.7988V68.9409V69.0831V69.2254V69.3679V69.5104V69.653V69.7957V69.9386V70.0815V70.2244V70.3675V70.5107V70.6539V70.7972V70.9406V71.084V71.2276V71.3712V71.5148V71.6585V71.8023V71.9462V72.09V72.234V72.378V72.522V72.6661V72.8102V72.9543V73.0985V73.2428V73.387V73.5313V73.6756V73.82V73.9643V74.1087V74.2531V74.3975V74.5419V74.6863V74.8307V74.9752V75.1196V75.264V75.4085V75.5529V75.6973V75.8417V75.9861V76.1304V76.2748V76.4191V76.5634V76.7077V76.8519V76.9961V77.1403V77.2844V77.4285V77.5725V77.7166V77.8605V78.0044V78.1483V78.2921V78.4358V78.5795V78.7231V78.8667V79.0101V79.1535V79.2969V79.4401V79.5833V79.7264V79.8694V80.0124V80.1552V80.298V80.4406V80.5832V80.7257V80.868V81.0103V81.1524V81.2945V81.4364V81.5782V81.7199V81.8615V82.003V82.1443V82.2855V82.4266V82.5675V82.7084V82.849V82.9896V83.13V83.2702V83.4103V83.5503V83.6901V83.8297V83.9692V84.1085V84.2477V84.3867V84.5255V84.6642V84.8027V84.941V85.0791V85.2171V85.3549V85.4924V85.6298V85.7671V85.9041V86.0409V86.1775V86.3139V86.4501V86.5862V86.722V86.8576V86.9929V87.1281V87.2631V87.3978V87.5323V87.6666V87.8006V87.9344V88.068V88.2013V88.3345V88.4673V88.5999V88.7323V88.8644V88.9963V89.1279V89.2593V89.3904V89.5212V89.6518V89.7821V89.9122V90.0419V90.1714V90.3007V90.4296V90.5583V90.6866V90.8147V90.9425V91.07V91.1972V91.3241V91.4507V91.577V91.703V91.8287V91.9541V92.0792V92.2039V92.3284V92.4525V92.5763V92.6998V92.8229V92.9457V93.0682V93.1903V93.3121V93.4336V93.5547V93.6755V93.7959V93.916V94.0357V94.1551V94.2741V94.3927V94.511V94.6289V94.7465V94.8637V94.9805V95.0969V95.2129V95.3286V95.4439V95.5588V95.6733V95.7874V95.9011V96.0144V96.1274V96.2399V96.352V96.4637V96.575V96.6859V96.7964V96.9064V97.0161V97.1253V97.2341V97.3424V97.4504V97.5579V97.6649V97.7716V97.8778V97.9835V98.0888V98.1936V98.2981V98.402V98.5055V98.6085V98.7111V98.8132V98.9149V99.0161V99.1168V99.217V99.3168V99.416V99.5148V99.6132V99.711V99.8083V99.9052V100.002V100.097V100.193V100.288V100.382V100.476V100.569V100.662V100.754V100.846V100.937V101.028V101.118V101.208V101.297V101.386V101.474V101.562V101.649V101.735V101.821V101.907V101.992V102.076V102.16V102.243V102.325V102.407V102.433H198.886V75.5V60.4977C198.958 47.6882 194.227 35.3166 185.625 25.8239C177.02 16.3273 165.167 10.4024 152.406 9.21892C139.646 8.03547 126.905 11.6796 116.7 19.4317C107.393 26.5021 100.811 36.521 97.9944 47.7961C92.4452 49.2191 87.1662 51.5653 82.381 54.7438C76.6584 58.5449 71.7592 63.4586 67.9749 69.1923C64.1907 74.926 61.5988 81.3625 60.3535 88.1187C59.4096 93.2403 59.2541 98.4661 59.8839 103.616C52.4845 105.687 45.6242 109.403 39.8276 114.511C32.7829 120.719 27.5805 128.744 24.7895 137.709C21.9984 146.675 21.726 156.235 24.002 165.345C25.7359 172.284 28.8979 178.759 33.2592 184.368C24.7891 189.47 17.6691 196.591 12.5617 205.137C6.31668 215.586 3.37159 227.677 4.11194 239.827C4.85229 251.977 9.24358 263.621 16.7111 273.235C23.245 281.646 31.8676 288.16 41.6851 292.151C40.4697 299.27 40.7708 306.583 42.5897 313.607C44.7933 322.117 49.1504 329.916 55.2415 336.254C61.3326 342.593 68.9527 347.256 77.3683 349.796C84.1969 351.857 91.3626 352.463 98.4064 351.598C101.182 361.383 106.823 370.16 114.655 376.767C123.755 384.443 135.246 388.708 147.151 388.83C158.599 388.946 172.192 385.95 181.748 378.217C186.048 374.737 190.605 370.786 193.883 363.961C196.693 358.113 198.401 350.521 198.797 339.83H248.296C248.905 341.121 249.736 342.31 250.764 343.339C253.108 345.683 256.288 347 259.603 347C262.918 347 266.098 345.683 268.442 343.339C270.786 340.995 272.103 337.815 272.103 334.5C272.103 331.185 270.786 328.005 268.442 325.661C266.098 323.317 262.918 322 259.603 322C256.288 322 253.108 323.317 250.764 325.661C249.563 326.863 248.631 328.284 248.008 329.83H198.886V278.036H329.103C336.801 278.036 345.799 278.166 353.061 283.383C359.459 287.981 365.609 297.448 366.494 318.092C365.118 318.708 363.851 319.574 362.764 320.661C360.42 323.005 359.103 326.185 359.103 329.5C359.103 332.815 360.42 335.995 362.764 338.339C365.108 340.683 368.288 342 371.603 342C374.918 342 378.098 340.683 380.442 338.339C382.786 335.995 384.103 332.815 384.103 329.5C384.103 326.185 382.786 323.005 380.442 320.661C379.299 319.518 377.957 318.619 376.498 317.998C375.58 295.342 368.731 282.329 358.896 275.262C348.83 268.03 336.818 268.034 329.476 268.036H329.103H198.886V211.242V190.805H290.285C290.894 192.106 291.729 193.304 292.764 194.339C295.108 196.683 298.288 198 301.603 198C304.918 198 308.098 196.683 310.442 194.339C312.786 191.995 314.103 188.815 314.103 185.5C314.103 182.185 312.786 179.005 310.442 176.661C308.098 174.317 304.918 173 301.603 173C298.288 173 295.108 174.317 292.764 176.661C291.569 177.856 290.641 179.268 290.018 180.805H198.886V112.433H277.603H324.118C324.738 113.877 325.631 115.206 326.764 116.339C329.108 118.683 332.288 120 335.603 120C338.918 120 342.098 118.683 344.442 116.339C346.786 113.995 348.103 110.815 348.103 107.5C348.103 104.185 346.786 101.005 344.442 98.6611C342.098 96.3169 338.918 95 335.603 95C332.288 95 329.108 96.3169 326.764 98.6611C325.666 99.7592 324.794 101.04 324.176 102.433H282.603V102.407V102.325V102.243V102.16V102.076V101.992V101.907V101.821V101.735V101.649V101.562V101.474V101.386V101.297V101.208V101.118V101.028V100.937V100.846V100.754V100.662V100.569V100.476V100.382V100.288V100.193V100.097V100.002V99.9052V99.8083V99.711V99.6132V99.5148V99.416V99.3168V99.217V99.1168V99.0161V98.9149V98.8132V98.7111V98.6085V98.5055V98.402V98.2981V98.1936V98.0888V97.9835V97.8778V97.7716V97.6649V97.5579V97.4504V97.3424V97.2341V97.1253V97.0161V96.9064V96.7964V96.6859V96.575V96.4637V96.352V96.2399V96.1274V96.0144V95.9011V95.7874V95.6733V95.5588V95.4439V95.3286V95.2129V95.0969V94.9805V94.8637V94.7465V94.6289V94.511V94.3927V94.2741V94.1551V94.0357V93.916V93.7959V93.6755V93.5547V93.4336V93.3121V93.1903V93.0682V92.9457V92.8229V92.6998V92.5763V92.4525V92.3284V92.2039V92.0792V91.9541V91.8287V91.703V91.577V91.4507V91.3241V91.1972V91.07V90.9425V90.8147V90.6866V90.5583V90.4296V90.3007V90.1714V90.0419V89.9122V89.7821V89.6518V89.5212V89.3904V89.2593V89.1279V88.9963V88.8644V88.7323V88.5999V88.4673V88.3345V88.2013V88.068V87.9344V87.8006V87.6666V87.5323V87.3978V87.2631V87.1281V86.9929V86.8576V86.722V86.5862V86.4501V86.3139V86.1775V86.0409V85.9041V85.7671V85.6298V85.4924V85.3549V85.2171V85.0791V84.941V84.8027V84.6642V84.5255V84.3867V84.2477V84.1085V83.9692V83.8297V83.6901V83.5503V83.4103V83.2702V83.13V82.9896V82.849V82.7084V82.5675V82.4266V82.2855V82.1443V82.003V81.8615V81.7199V81.5782V81.4364V81.2945V81.1524V81.0103V80.868V80.7257V80.5832V80.4406V80.298V80.1552V80.0124V79.8694V79.7264V79.5833V79.4401V79.2969V79.1535V79.0101V78.8667V78.7231V78.5795V78.4358V78.2921V78.1483V78.0044V77.8605V77.7166V77.5725V77.4285V77.2844V77.1403V76.9961V76.8519V76.7077V76.5634V76.4191V76.2748V76.1304V75.9861V75.8417V75.6973V75.5529V75.4085V75.264V75.1196V74.9752V74.8307V74.6863V74.5419V74.3975V74.2531V74.1087V73.9643V73.82V73.6756V73.5313V73.387V73.2428V73.0985V72.9543V72.8102V72.6661V72.522V72.378V72.234V72.09V71.9462V71.8023V71.6585V71.5148V71.3712V71.2276V71.084V70.9406V70.7972V70.6539V70.5107V70.3675V70.2244V70.0815V69.9386V69.7957V69.653V69.5104V69.3679V69.2254V69.0831V68.9409V68.7988V68.6568V68.5149V68.3731V68.2315V68.0899V67.9485V67.8072V67.6661V67.525V67.3841V67.2434V67.1028V66.9623V66.8219V66.6817V66.5417V66.4018V66.2621V66.1225V65.983V65.8438V65.7047V65.5657V65.427V65.2884V65.1499V65.0117V64.8736V64.7357V64.598V64.4605V64.3232V64.186V64.0491V63.9123V63.7758V63.6394V63.5033V63.3674V63.2316V63.0961V62.9608V62.8257V62.6909V62.5562V62.4218V62.2876V62.1536V62.0199V61.8864V61.7532V61.6202V61.4874V61.3548V61.2226V61.0905V60.9588V60.8272V60.696V60.5649V60.4342V60.3037V60.1735V60.0436V59.9139V59.7845V59.6554V59.5266V59.398V59.2697V59.1418V59.0141V58.8867V58.7596V58.6328V58.5063V58.3801V58.2542V58.1286V58.0034V57.8784V57.7538V57.6295V57.5055V57.3818V57.2584V57.1354V57.0127V56.8904V56.7684V56.6467V56.5253V56.4043V56.2837V56.1634V56.0435V55.9239V55.8046V55.6858V55.5672V55.4491V55.3313V55.2139V55.0969V54.9802V54.8639V54.748V54.6325V54.5174V54.4026V54.2882V54.1743V54.0607V53.9475V53.8348V53.7224V53.6104V53.4989V53.3877V53.277V53.1666V53.0567V52.9473V52.8382V52.7296V52.6214V52.5136V52.4063V52.2994V52.1929V52.0869V51.9813C282.603 43.9174 284.704 37.2637 289.69 31.9403C293.662 27.6991 299.792 23.9517 309.041 21.1858C309.531 21.9589 310.107 22.6817 310.764 23.3388C313.108 25.683 316.288 27 319.603 27C322.918 27 326.098 25.683 328.442 23.3388ZM154.525 65.2325C140.837 47.8949 121.927 45.2682 108.954 46.1105C111.644 38.723 116.411 32.2093 122.749 27.3946C130.961 21.1563 141.214 18.2238 151.483 19.1762C161.752 20.1285 171.29 24.8965 178.215 32.5386C185.14 40.1808 188.947 50.1416 188.886 60.4542V60.4839V75.0988C187.588 82.9859 183.098 101.078 161.088 108.065C158.456 108.901 156.999 111.712 157.835 114.344C158.671 116.976 161.482 118.432 164.114 117.596C175.953 113.838 183.739 107.428 188.886 100.625V107.433V185.805V190.829C186.999 188.539 184.824 186.374 182.32 184.459C172.7 177.103 159.056 174.052 140.553 180.076C137.927 180.931 136.491 183.753 137.346 186.379C138.201 189.004 141.023 190.44 143.649 189.585C159.546 184.409 169.647 187.357 176.245 192.403C182.928 197.513 186.822 205.388 188.886 211.988V273.036V334.83C188.886 347.444 187.194 354.791 184.869 359.63C182.594 364.366 179.509 367.165 175.458 370.443C168.311 376.226 157.291 378.932 147.253 378.83C137.673 378.733 128.426 375.3 121.102 369.123C114.78 363.789 110.232 356.698 108.006 348.793C112.993 346.436 119.388 342.704 124.461 337.136C131.26 329.674 135.553 319.003 131.396 304.915C130.615 302.267 127.834 300.753 125.186 301.535C122.537 302.317 121.024 305.097 121.805 307.746C124.848 318.058 121.826 325.181 117.069 330.401C112.196 335.749 105.393 339.154 100.717 341.083C93.9355 342.521 86.8984 342.227 80.2576 340.222C73.4854 338.178 67.3533 334.426 62.4516 329.325C57.55 324.225 54.0437 317.949 52.2704 311.1C50.9242 305.902 50.6112 300.506 51.3305 295.217C55.1407 296.121 59.9829 296.947 65.1146 297.097C73.1037 297.329 82.7177 295.944 89.9141 289.575C91.9819 287.745 92.1747 284.585 90.3446 282.517C88.5145 280.449 85.3545 280.256 83.2867 282.086C78.883 285.984 72.3612 287.303 65.4057 287.101C58.5588 286.901 52.1821 285.246 49.0851 284.205C49.0642 284.198 49.0433 284.192 49.0223 284.185C39.3498 281.078 30.8406 275.123 24.6084 267.1C18.3762 259.077 14.7113 249.359 14.0934 239.219C13.4756 229.078 15.9335 218.987 21.1455 210.267C26.3575 201.547 34.0807 194.603 43.3045 190.344C43.4543 190.275 43.6007 190.199 43.743 190.115C46.5921 188.44 53.5688 186.486 62.2656 186.4C70.8157 186.315 80.2019 188.052 87.958 192.88C90.3023 194.34 93.3858 193.622 94.8451 191.278C96.3044 188.934 95.587 185.85 93.2427 184.391C83.3988 178.263 71.971 176.303 62.1662 176.4C54.5956 176.475 47.479 177.787 42.3893 179.743C38.238 174.897 35.2579 169.141 33.7038 162.921C31.8722 155.59 32.0914 147.897 34.3375 140.682C36.5835 133.467 40.7699 127.009 46.439 122.013C52.1081 117.018 59.0416 113.677 66.4814 112.356C67.8239 112.118 69.0109 111.341 69.7673 110.207C70.5238 109.073 70.7842 107.679 70.4882 106.348C69.288 100.951 69.1858 95.3681 70.1879 89.9313C71.19 84.4944 73.2757 79.3148 76.321 74.7007C79.3663 70.0867 83.3088 66.1325 87.9139 63.0737C92.519 60.0148 97.6925 57.9138 103.127 56.8958C113.767 54.9022 133.416 54.6328 146.676 71.429C148.387 73.5963 151.531 73.9662 153.699 72.2551C155.866 70.5441 156.236 67.3999 154.525 65.2325ZM119.764 216.309C121.49 215.438 123.595 216.131 124.466 217.856C128.115 225.086 128.098 232.717 126.747 239.121C125.846 243.388 124.329 247.237 122.767 250.267C132.154 254.104 140.59 260.804 146.477 268.685C153.187 277.667 156.926 288.684 154.232 299.08C153.747 300.951 151.837 302.075 149.966 301.59C148.095 301.105 146.971 299.195 147.456 297.324C149.435 289.687 146.817 280.836 140.869 272.874C134.952 264.952 126.076 258.408 116.569 255.474C108.113 252.864 99.3427 253.151 91.6065 257.587C89.9297 258.549 87.7908 257.969 86.8292 256.292C85.8676 254.615 86.4473 252.477 88.1242 251.515C97.0248 246.411 106.835 245.803 116.009 248.058C117.461 245.461 119.026 241.804 119.898 237.675C121.033 232.296 120.937 226.4 118.217 221.01C117.346 219.285 118.039 217.18 119.764 216.309ZM134.525 101.198C136.291 100.413 137.086 98.3449 136.301 96.5785C135.516 94.8121 133.448 94.0166 131.682 94.8017C121.661 99.2554 116.121 106.921 113.317 114.563C111.182 120.383 110.605 126.242 110.793 130.842C96.4991 132.593 85.5867 141.292 80.3698 147.814C79.1622 149.323 79.4069 151.526 80.9164 152.733C82.4258 153.941 84.6283 153.696 85.8358 152.186C90.6207 146.205 101.231 138.015 114.724 137.549C121.838 137.303 129.945 139.188 138.682 144.926C140.298 145.987 142.468 145.537 143.529 143.921C144.59 142.306 144.14 140.136 142.524 139.074C133.887 133.402 125.525 130.908 117.787 130.568C117.632 126.804 118.097 121.858 119.889 116.975C122.168 110.763 126.546 104.745 134.525 101.198Z" fill="url(#paint0_linear_76_14)"/>
</g>
</g>
<defs>
<filter id="filter0_d_76_14" x="0" y="0" width="388.103" height="394.833" filterUnits="userSpaceOnUse" color-interpolation-filters="sRGB">
<feFlood flood-opacity="0" result="BackgroundImageFix"/>
<feColorMatrix in="SourceAlpha" type="matrix" values="0 0 0 0 0 0 0 0 0 0 0 0 0 0 0 0 0 0 127 0" result="hardAlpha"/>
<feOffset dy="2"/>
<feGaussianBlur stdDeviation="2"/>
<feComposite in2="hardAlpha" operator="out"/>
<feColorMatrix type="matrix" values="0 0 0 0 0 0 0 0 0 0 0 0 0 0 0 0 0 0 0.25 0"/>
<feBlend mode="normal" in2="BackgroundImageFix" result="effect1_dropShadow_76_14"/>
<feBlend mode="normal" in="SourceGraphic" in2="effect1_dropShadow_76_14" result="shape"/>
</filter>
<linearGradient id="paint0_linear_76_14" x1="4.10254" y1="195" x2="384.103" y2="195" gradientUnits="userSpaceOnUse">
<stop stop-color="#34B3E4"/>
<stop offset="1" stop-color="#005E93"/>
</linearGradient>
<clipPath id="clip0_76_14">
<rect width="389" height="395" fill="white"/>
</clipPath>
</defs>
</svg>
