<svg width="35" height="36" viewBox="0 0 35 36" fill="none" xmlns="http://www.w3.org/2000/svg">
<path d="M30.625 6.33348C30.6098 6.19951 30.5805 6.06752 30.5375 5.93973V5.80848C30.4676 5.64618 30.3688 5.49793 30.2458 5.37098C30.1221 5.25469 29.979 5.16093 29.8229 5.09389H29.6917C29.5573 4.99124 29.4035 4.91683 29.2396 4.87514H29.1667C29.0217 4.85314 28.8742 4.85314 28.7292 4.87514L2.47918 13.6251C2.18741 13.721 1.93337 13.9066 1.75327 14.1554C1.57317 14.4042 1.47621 14.7034 1.47621 15.0106C1.47621 15.3177 1.57317 15.617 1.75327 15.8657C1.93337 16.1145 2.18741 16.3001 2.47918 16.396L14.9188 20.5376L19.0604 32.9772C19.1563 33.269 19.3419 33.523 19.5907 33.7031C19.8394 33.8832 20.1387 33.9802 20.4458 33.9802C20.753 33.9802 21.0523 33.8832 21.301 33.7031C21.5498 33.523 21.7354 33.269 21.8313 32.9772L30.5813 6.72723C30.6137 6.59858 30.6284 6.4661 30.625 6.33348ZM23.7708 9.67306L15.6479 17.796L7.52501 15.0835L23.7708 9.67306ZM20.4167 27.9751L17.7042 19.8522L25.8271 11.7293L20.4167 27.9751Z" fill="#231F20"/>
</svg>
