<svg width="17" height="18" viewBox="0 0 17 18" fill="none" xmlns="http://www.w3.org/2000/svg">
<path d="M16.2083 4.14508L13.3542 1.29091C12.9817 0.941008 12.4935 0.74024 11.9826 0.726796C11.4717 0.713351 10.9737 0.888168 10.5833 1.21799L1.20834 10.593C0.871635 10.9325 0.661988 11.3776 0.614587 11.8534L0.166671 16.1972C0.152638 16.3497 0.172435 16.5035 0.224651 16.6476C0.276866 16.7916 0.360214 16.9224 0.468754 17.0305C0.566087 17.127 0.681521 17.2034 0.808435 17.2553C0.935349 17.3071 1.07125 17.3334 1.20834 17.3326H1.30209L5.64584 16.9367C6.12167 16.8893 6.56671 16.6797 6.90625 16.343L16.2813 6.96799C16.6451 6.58358 16.8418 6.0706 16.8281 5.54147C16.8144 5.01233 16.5916 4.51019 16.2083 4.14508ZM5.45834 14.8534L2.33334 15.1451L2.61459 12.0201L8.5 6.20757L11.3125 9.02007L5.45834 14.8534ZM12.6667 7.62424L9.875 4.83257L11.9063 2.74924L14.75 5.59299L12.6667 7.62424Z" fill="#231F20"/>
</svg>
